<svg width="861" height="534" viewBox="0 0 861 534" fill="none" xmlns="http://www.w3.org/2000/svg">
<path fill-rule="evenodd" clip-rule="evenodd" d="M135.5 271.5C134.834 268.311 134.167 264.977 133.5 261.5C132.583 262.127 131.583 262.461 130.5 262.5C132.801 237.687 145.801 221.187 169.5 213C193.993 207.716 213.826 214.883 229 234.5C229.5 236.667 228.667 237.5 226.5 237C211.572 217.691 192.238 211.358 168.5 218C145.199 228.08 134.199 245.913 135.5 271.5Z" fill="#FFE561"/>
<path opacity="0.997" fill-rule="evenodd" clip-rule="evenodd" d="M176.5 231.5C175.078 231.709 173.745 232.209 172.5 233C173.448 233.483 174.448 233.649 175.5 233.5C179.182 233.335 182.848 233.501 186.5 234C188.394 235.079 188.727 236.413 187.5 238C184.79 239.015 182.457 240.515 180.5 242.5C181.939 244.553 183.939 245.553 186.5 245.5C186.022 242.722 187.022 240.722 189.5 239.5C191.133 241.503 193.133 242.836 195.5 243.5C195.585 245.929 196.585 247.929 198.5 249.5C196.672 250.795 194.672 251.795 192.5 252.5C193.641 253.425 193.641 254.259 192.5 255C186.394 257.18 182.394 261.346 180.5 267.5C176.553 264.355 173.553 265.021 171.5 269.5C172.242 270.287 173.075 270.953 174 271.5C174.689 270.643 175.522 269.977 176.5 269.5C178.003 271.586 179.336 273.752 180.5 276C184.5 275.32 188.5 275.653 192.5 277C196.124 279.643 199.957 281.81 204 283.5C204.667 284.833 204.667 286.167 204 287.5C201.537 290.965 198.704 294.131 195.5 297C195.833 297.167 196.167 297.333 196.5 297.5C202.347 294.746 207.68 291.246 212.5 287C214.5 286.333 216.5 286.333 218.5 287C218.043 287.414 217.709 287.914 217.5 288.5C213.417 292.194 209.417 296.027 205.5 300C182.271 310.624 163.438 305.457 149 284.5C140.272 264.233 144.438 246.733 161.5 232C178.301 222.805 194.634 223.471 210.5 234C221.14 243.794 225.806 255.961 224.5 270.5C220.9 270.794 217.4 271.46 214 272.5C213.876 268.254 215.709 265.087 219.5 263C215.561 262.023 214.561 259.689 216.5 256C214.66 253.331 212.66 250.831 210.5 248.5C213.08 246.287 213.08 244.12 210.5 242C207.728 242.052 205.394 243.219 203.5 245.5C202.186 244.687 201.019 243.687 200 242.5C199.9 239.097 199.066 235.93 197.5 233C190.636 230.433 183.636 229.933 176.5 231.5ZM158.5 242.5C159.777 243.694 160.444 245.36 160.5 247.5C159.704 252.157 159.537 256.824 160 261.5C163.134 264.94 165.634 268.773 167.5 273C170.167 274 172.833 275 175.5 276C177.091 278.133 179.091 279.799 181.5 281C179.016 283.284 178.849 285.784 181 288.5C185.226 290.826 186.393 294.159 184.5 298.5C173.984 299.166 165.15 295.499 158 287.5C147.196 272.231 147.363 257.231 158.5 242.5Z" fill="#FFE561"/>
<path opacity="0.094" fill-rule="evenodd" clip-rule="evenodd" d="M176.5 231.5C176.167 232.167 175.833 232.833 175.5 233.5C174.448 233.649 173.448 233.483 172.5 233C173.745 232.209 175.078 231.709 176.5 231.5Z" fill="#FFE561"/>
<path fill-rule="evenodd" clip-rule="evenodd" d="M429.5 231.5C433.08 233.408 436.08 236.074 438.5 239.5C435.85 242.651 433.016 245.651 430 248.5C427.486 245.322 424.986 242.156 422.5 239C424.348 235.987 426.682 233.487 429.5 231.5Z" fill="#F2F2F2"/>
<path fill-rule="evenodd" clip-rule="evenodd" d="M456.5 239.5C458.607 238.532 460.941 238.198 463.5 238.5C463.819 243.363 463.486 248.03 462.5 252.5C462.5 248.167 462.5 243.833 462.5 239.5C460.5 239.5 458.5 239.5 456.5 239.5Z" fill="#F2F2F2"/>
<path opacity="0.792" fill-rule="evenodd" clip-rule="evenodd" d="M606.5 239.5C608.948 238.527 611.615 238.194 614.5 238.5C614.784 240.415 614.451 242.081 613.5 243.5C613.5 242.167 613.5 240.833 613.5 239.5C611.167 239.5 608.833 239.5 606.5 239.5Z" fill="#F2F2F2"/>
<path fill-rule="evenodd" clip-rule="evenodd" d="M456.5 239.5C458.5 239.5 460.5 239.5 462.5 239.5C462.5 243.833 462.5 248.167 462.5 252.5C462.333 263.838 462.5 275.172 463 286.5C463.505 288.518 464.005 290.518 464.5 292.5C464.833 293.833 465.167 295.167 465.5 296.5C462.022 299.277 458.022 300.11 453.5 299C451.513 297.681 450.346 295.848 450 293.5C450.777 277.5 450.611 261.5 449.5 245.5C449.366 243.708 449.699 242.042 450.5 240.5C452.379 239.659 454.379 239.325 456.5 239.5Z" fill="#F2F2F2"/>
<path fill-rule="evenodd" clip-rule="evenodd" d="M606.5 239.5C608.833 239.5 611.167 239.5 613.5 239.5C613.5 240.833 613.5 242.167 613.5 243.5C613.156 253.509 612.989 263.509 613 273.5C617.701 269.134 622.034 264.467 626 259.5C627.559 257.783 628.392 255.783 628.5 253.5C630.167 253.5 631.833 253.5 633.5 253.5C636.059 253.198 638.393 253.532 640.5 254.5C635.855 259.48 631.188 264.48 626.5 269.5C629.593 275.359 632.926 281.025 636.5 286.5C636.427 288.027 637.094 289.027 638.5 289.5C641.146 291.479 643.479 293.812 645.5 296.5C640.46 299.116 635.127 299.949 629.5 299C625.458 292.415 621.291 285.915 617 279.5C614.923 281.076 613.423 283.076 612.5 285.5C613.247 289.138 613.914 292.805 614.5 296.5C614.167 297.167 613.833 297.833 613.5 298.5C608.849 299.703 604.182 299.703 599.5 298.5C599.5 280.5 599.5 262.5 599.5 244.5C599.433 243.041 599.766 241.708 600.5 240.5C602.379 239.659 604.379 239.325 606.5 239.5Z" fill="#F2F2F2"/>
<path fill-rule="evenodd" clip-rule="evenodd" d="M450.5 240.5C449.699 242.042 449.366 243.708 449.5 245.5C448.861 244.903 448.528 244.07 448.5 243C448.684 241.624 449.351 240.791 450.5 240.5Z" fill="#F2F2F2"/>
<path fill-rule="evenodd" clip-rule="evenodd" d="M479.5 240.5C478.167 241.167 476.833 241.833 475.5 242.5C474.957 242.44 474.624 242.107 474.5 241.5C476.045 240.548 477.712 240.215 479.5 240.5Z" fill="#F2F2F2"/>
<path fill-rule="evenodd" clip-rule="evenodd" d="M479.5 240.5C481.833 240.5 484.167 240.5 486.5 240.5C487.671 241.345 489.005 242.011 490.5 242.5C496.07 253.979 501.403 265.645 506.5 277.5C506.711 279.424 507.377 279.757 508.5 278.5C513.988 266.188 519.488 253.855 525 241.5C530.072 240.529 535.238 240.195 540.5 240.5C540.4 251.505 540.066 262.505 539.5 273.5C539.451 281.583 540.118 289.583 541.5 297.5C536.33 299.816 530.997 300.149 525.5 298.5C525.927 294.176 526.261 289.842 526.5 285.5C527.658 276.009 527.825 266.342 527 256.5C525.961 257.244 525.461 258.244 525.5 259.5C519.845 272.145 514.179 284.812 508.5 297.5C506.548 299.533 504.382 299.866 502 298.5C496.333 286.167 490.667 273.833 485 261.5C484.33 273.765 484.83 285.932 486.5 298C477.324 301.902 473.657 298.902 475.5 289C476.627 273.502 476.627 258.002 475.5 242.5C476.833 241.833 478.167 241.167 479.5 240.5Z" fill="#F2F2F2"/>
<path fill-rule="evenodd" clip-rule="evenodd" d="M486.5 240.5C488.483 240.157 489.817 240.824 490.5 242.5C489.005 242.011 487.671 241.345 486.5 240.5Z" fill="#F2F2F2"/>
<path fill-rule="evenodd" clip-rule="evenodd" d="M333.5 252.5C329.03 251.514 324.363 251.181 319.5 251.5C319.5 253.5 319.5 255.5 319.5 257.5C319.334 267.839 319.5 278.172 320 288.5C320.212 291.758 320.712 294.924 321.5 298C319.466 299.006 317.3 299.506 315 299.5C311.833 299.099 308.666 298.766 305.5 298.5C305.669 293.819 306.002 289.152 306.5 284.5C307.495 273.679 307.828 262.679 307.5 251.5C302.637 251.181 297.97 251.514 293.5 252.5C293.167 252.5 292.833 252.5 292.5 252.5C291.222 252.218 290.222 251.551 289.5 250.5C289.5 248.167 289.5 245.833 289.5 243.5C290.222 242.449 291.222 241.782 292.5 241.5C307.202 241.784 321.869 241.45 336.5 240.5C338.14 245.01 337.807 249.344 335.5 253.5C334.817 253.137 334.15 252.804 333.5 252.5Z" fill="#F2F2F2"/>
<path fill-rule="evenodd" clip-rule="evenodd" d="M292.5 241.5C291.222 241.782 290.222 242.449 289.5 243.5C289.5 242.5 289.5 241.5 289.5 240.5C290.791 240.263 291.791 240.596 292.5 241.5Z" fill="#F2F2F2"/>
<path opacity="0.039" fill-rule="evenodd" clip-rule="evenodd" d="M600.5 240.5C599.766 241.708 599.433 243.041 599.5 244.5C598.876 244.083 598.543 243.416 598.5 242.5C598.747 241.287 599.414 240.62 600.5 240.5Z" fill="#F2F2F2"/>
<path opacity="0.49" fill-rule="evenodd" clip-rule="evenodd" d="M333.5 252.5C329.167 252.5 324.833 252.5 320.5 252.5C320.784 254.415 320.451 256.081 319.5 257.5C319.5 255.5 319.5 253.5 319.5 251.5C324.363 251.181 329.03 251.514 333.5 252.5Z" fill="#F2F2F2"/>
<path opacity="0.039" fill-rule="evenodd" clip-rule="evenodd" d="M142.5 254.5C141.475 254.103 141.308 253.437 142 252.5C142.464 253.094 142.631 253.761 142.5 254.5Z" fill="#F2F2F2"/>
<path opacity="0.624" fill-rule="evenodd" clip-rule="evenodd" d="M289.5 250.5C290.222 251.551 291.222 252.218 292.5 252.5C291.791 253.404 290.791 253.737 289.5 253.5C289.5 252.5 289.5 251.5 289.5 250.5Z" fill="#F2F2F2"/>
<path opacity="0.98" fill-rule="evenodd" clip-rule="evenodd" d="M363.5 253.5C363.917 252.876 364.584 252.543 365.5 252.5C366.713 252.747 367.38 253.414 367.5 254.5C366.292 253.766 364.959 253.433 363.5 253.5Z" fill="#F2F2F2"/>
<path opacity="0.943" fill-rule="evenodd" clip-rule="evenodd" d="M633.5 253.5C636.304 252.362 639.304 252.195 642.5 253C641.956 253.717 641.289 254.217 640.5 254.5C638.393 253.532 636.059 253.198 633.5 253.5Z" fill="#F2F2F2"/>
<path fill-rule="evenodd" clip-rule="evenodd" d="M351.5 254.5C351.427 256.027 352.094 257.027 353.5 257.5C353.783 258.289 354.283 258.956 355 259.5C357.279 256.619 360.112 254.619 363.5 253.5C364.959 253.433 366.292 253.766 367.5 254.5C368.388 257.054 368.721 259.721 368.5 262.5C368.5 263.5 368.5 264.5 368.5 265.5C365.941 265.198 363.607 265.532 361.5 266.5C359.53 267.162 357.53 267.828 355.5 268.5C355.167 272.667 354.833 276.833 354.5 281C354.289 286.828 354.955 292.495 356.5 298C351.22 299.828 345.886 299.995 340.5 298.5C341.157 288.503 341.324 278.503 341 268.5C340.888 264.494 339.722 260.827 337.5 257.5C338.364 255.803 339.697 254.637 341.5 254C344.924 253.253 348.257 253.42 351.5 254.5Z" fill="#F2F2F2"/>
<path opacity="0.999" fill-rule="evenodd" clip-rule="evenodd" d="M394.5 274.5C395.833 274.5 397.167 274.5 398.5 274.5C398.768 272.901 398.434 271.568 397.5 270.5C395.905 266.531 392.905 264.865 388.5 265.5C383.812 265.377 379.645 266.71 376 269.5C374.627 267.305 374.294 264.971 375 262.5C383.096 253.018 392.929 250.518 404.5 255C407.187 256.875 409.021 259.375 410 262.5C410.645 269.35 410.478 276.183 409.5 283C409.528 287.623 410.862 291.789 413.5 295.5C409.979 298.397 405.979 299.563 401.5 299C399.951 297.786 398.785 296.286 398 294.5C390.493 300.198 382.659 300.865 374.5 296.5C370.4 287.63 372.733 281.13 381.5 277C385.688 275.369 390.021 274.536 394.5 274.5ZM392.5 279.5C394.167 279.5 395.833 279.5 397.5 279.5C397.326 282.874 396.826 286.207 396 289.5C388.33 294.149 385.33 292.149 387 283.5C388.812 282.023 390.645 280.69 392.5 279.5Z" fill="#F2F2F2"/>
<path fill-rule="evenodd" clip-rule="evenodd" d="M431.5 253.5C433.167 253.5 434.833 253.5 436.5 253.5C436.5 256.167 436.5 258.833 436.5 261.5C436.334 269.84 436.5 278.173 437 286.5C437.116 289.932 438.283 292.932 440.5 295.5C436.886 299.165 432.553 300.332 427.5 299C425.462 297.764 424.295 295.931 424 293.5C424.28 281.483 424.114 269.483 423.5 257.5C423.557 256.391 423.89 255.391 424.5 254.5C426.764 253.781 429.097 253.448 431.5 253.5Z" fill="#F2F2F2"/>
<path opacity="0.999" fill-rule="evenodd" clip-rule="evenodd" d="M571.5 274.5C572.833 274.5 574.167 274.5 575.5 274.5C575.768 272.901 575.434 271.568 574.5 270.5C572.905 266.531 569.905 264.865 565.5 265.5C560.875 265.542 556.709 266.875 553 269.5C551.85 267.246 551.516 264.913 552 262.5C560.88 252.321 571.38 250.154 583.5 256C585.041 257.579 586.208 259.413 587 261.5C587.727 268.856 587.56 276.189 586.5 283.5C586.843 287.717 588.176 291.55 590.5 295C587.186 298.327 583.186 299.66 578.5 299C576.951 297.786 575.785 296.286 575 294.5C569.265 299.088 562.765 300.588 555.5 299C549.37 294.927 547.87 289.427 551 282.5C556.676 276.995 563.509 274.328 571.5 274.5ZM570.5 279.5C571.833 279.5 573.167 279.5 574.5 279.5C574.5 280.5 574.5 281.5 574.5 282.5C575.2 289.153 572.2 292.32 565.5 292C561.715 285.72 563.381 281.554 570.5 279.5Z" fill="#F2F2F2"/>
<path opacity="0.999" fill-rule="evenodd" clip-rule="evenodd" d="M666.5 252.5C681.279 251.606 689.279 258.606 690.5 273.5C690.291 274.994 689.624 276.161 688.5 277C679.218 278.692 669.885 280.026 660.5 281C663.557 288.08 668.89 290.413 676.5 288C680.011 287.33 683.344 286.163 686.5 284.5C688.256 286.191 688.756 288.191 688 290.5C677.809 300.185 666.309 302.018 653.5 296C645.259 285.472 644.425 274.305 651 262.5C655.239 257.479 660.406 254.146 666.5 252.5ZM664.5 260.5C671.768 260.434 675.435 264.101 675.5 271.5C670.769 272.183 666.102 273.183 661.5 274.5C660.359 272.579 660.192 270.579 661 268.5C661.921 265.664 663.088 262.998 664.5 260.5Z" fill="#F2F2F2"/>
<path fill-rule="evenodd" clip-rule="evenodd" d="M729.5 256.5C729.5 259.5 729.5 262.5 729.5 265.5C726.941 265.198 724.607 265.532 722.5 266.5C718.725 266.798 716.558 268.798 716 272.5C715.261 280.745 715.761 288.912 717.5 297C717.095 297.945 716.428 298.612 715.5 299C711.129 299.629 706.796 299.463 702.5 298.5C702.667 286.829 702.5 275.162 702 263.5C701.269 261.101 700.102 258.935 698.5 257C702.64 253.758 707.306 252.758 712.5 254C714.422 255.42 715.755 257.253 716.5 259.5C719.864 255.319 724.197 252.985 729.5 252.5C729.5 253.833 729.5 255.167 729.5 256.5Z" fill="#F2F2F2"/>
<path opacity="0.01" fill-rule="evenodd" clip-rule="evenodd" d="M142.5 254.5C143.167 254.5 143.5 254.833 143.5 255.5C143.167 255.167 142.833 254.833 142.5 254.5Z" fill="#F2F2F2"/>
<path fill-rule="evenodd" clip-rule="evenodd" d="M424.5 254.5C423.89 255.391 423.557 256.391 423.5 257.5C422.115 256.053 422.448 255.053 424.5 254.5Z" fill="#F2F2F2"/>
<path opacity="0.027" fill-rule="evenodd" clip-rule="evenodd" d="M143.5 255.5C144.833 256.167 144.833 256.167 143.5 255.5Z" fill="#F2F2F2"/>
<path fill-rule="evenodd" clip-rule="evenodd" d="M351.5 254.5C352.906 254.973 353.573 255.973 353.5 257.5C352.094 257.027 351.427 256.027 351.5 254.5Z" fill="#F2F2F2"/>
<path opacity="0.831" fill-rule="evenodd" clip-rule="evenodd" d="M431.5 253.5C433.265 252.539 435.265 252.205 437.5 252.5C437.81 255.713 437.477 258.713 436.5 261.5C436.5 258.833 436.5 256.167 436.5 253.5C434.833 253.5 433.167 253.5 431.5 253.5Z" fill="#F2F2F2"/>
<path fill-rule="evenodd" clip-rule="evenodd" d="M218.5 282.5C215.941 282.802 213.607 282.468 211.5 281.5C211.329 279.007 212.329 277.174 214.5 276C219.552 275.256 224.552 274.256 229.5 273C231.436 268.447 234.102 264.447 237.5 261C238.5 260.333 239.5 260.333 240.5 261C241.26 262.441 241.926 263.941 242.5 265.5C241.265 269.039 239.932 272.539 238.5 276C241.619 281.069 244.619 286.235 247.5 291.5C246.833 293.167 246.167 294.833 245.5 296.5C244.998 297.521 244.332 297.688 243.5 297C240.684 293.217 237.517 289.717 234 286.5C232.247 289.005 230.747 291.671 229.5 294.5C230.635 296.799 231.968 298.966 233.5 301C232.953 301.925 232.287 302.758 231.5 303.5C226.09 302.147 220.757 300.147 215.5 297.5C215.238 296.022 215.571 294.689 216.5 293.5C218.747 292.626 221.08 292.292 223.5 292.5C223.998 289.171 224.998 286.005 226.5 283C223.854 282.503 221.187 282.336 218.5 282.5Z" fill="#FFE561"/>
<path opacity="0.877" fill-rule="evenodd" clip-rule="evenodd" d="M293.5 252.5C297.97 251.514 302.637 251.181 307.5 251.5C307.828 262.679 307.495 273.679 306.5 284.5C306.5 273.833 306.5 263.167 306.5 252.5C302.167 252.5 297.833 252.5 293.5 252.5Z" fill="#F2F2F2"/>
<path opacity="0.578" fill-rule="evenodd" clip-rule="evenodd" d="M526.5 285.5C526.826 276.651 526.493 267.984 525.5 259.5C525.461 258.244 525.961 257.244 527 256.5C527.825 266.342 527.658 276.009 526.5 285.5Z" fill="#F2F2F2"/>
<path fill-rule="evenodd" clip-rule="evenodd" d="M368.5 262.5C369.434 263.568 369.768 264.901 369.5 266.5C366.833 266.5 364.167 266.5 361.5 266.5C363.607 265.532 365.941 265.198 368.5 265.5C368.5 264.5 368.5 263.5 368.5 262.5Z" fill="#F2F2F2"/>
<path fill-rule="evenodd" clip-rule="evenodd" d="M729.5 256.5C730.479 259.625 730.813 262.958 730.5 266.5C727.833 266.5 725.167 266.5 722.5 266.5C724.607 265.532 726.941 265.198 729.5 265.5C729.5 262.5 729.5 259.5 729.5 256.5Z" fill="#F2F2F2"/>
<path opacity="0.031" fill-rule="evenodd" clip-rule="evenodd" d="M136.5 273.5C135.662 273.158 135.328 272.492 135.5 271.5C136.75 271.423 137.583 270.756 138 269.5C138.484 271.193 137.984 272.527 136.5 273.5Z" fill="#F2F2F2"/>
<path fill-rule="evenodd" clip-rule="evenodd" d="M397.5 270.5C398.434 271.568 398.768 272.901 398.5 274.5C397.167 274.5 395.833 274.5 394.5 274.5C395.209 273.596 396.209 273.263 397.5 273.5C397.5 272.5 397.5 271.5 397.5 270.5Z" fill="#F2F2F2"/>
<path opacity="0.886" fill-rule="evenodd" clip-rule="evenodd" d="M574.5 270.5C575.434 271.568 575.768 272.901 575.5 274.5C574.167 274.5 572.833 274.5 571.5 274.5C572.209 273.596 573.209 273.263 574.5 273.5C574.5 272.5 574.5 271.5 574.5 270.5Z" fill="#F2F2F2"/>
<path fill-rule="evenodd" clip-rule="evenodd" d="M135.5 271.5C135.328 272.492 135.662 273.158 136.5 273.5C142.139 298.508 157.805 312.175 183.5 314.5C196.212 313.708 207.545 309.375 217.5 301.5C219.554 303.194 221.888 304.361 224.5 305C206.104 321.095 185.438 324.762 162.5 316C140.859 304.527 130.192 286.694 130.5 262.5C131.583 262.461 132.583 262.127 133.5 261.5C134.167 264.977 134.834 268.311 135.5 271.5Z" fill="#FFE561"/>
<path fill-rule="evenodd" clip-rule="evenodd" d="M506.5 277.5C507.167 277.833 507.833 278.167 508.5 278.5C507.377 279.757 506.711 279.424 506.5 277.5Z" fill="#F2F2F2"/>
<path opacity="0.561" fill-rule="evenodd" clip-rule="evenodd" d="M570.5 279.5C571.919 278.549 573.585 278.216 575.5 278.5C575.768 280.099 575.434 281.432 574.5 282.5C574.5 281.5 574.5 280.5 574.5 279.5C573.167 279.5 571.833 279.5 570.5 279.5Z" fill="#F2F2F2"/>
<path opacity="0.851" fill-rule="evenodd" clip-rule="evenodd" d="M211.5 281.5C213.607 282.468 215.941 282.802 218.5 282.5C215.976 283.8 213.309 283.8 210.5 282.5C210.624 281.893 210.957 281.56 211.5 281.5Z" fill="#F2F2F2"/>
<path fill-rule="evenodd" clip-rule="evenodd" d="M636.5 286.5C637.906 286.973 638.573 287.973 638.5 289.5C637.094 289.027 636.427 288.027 636.5 286.5Z" fill="#F2F2F2"/>
<path fill-rule="evenodd" clip-rule="evenodd" d="M464.5 292.5C466.519 293.538 466.853 294.872 465.5 296.5C465.167 295.167 464.833 293.833 464.5 292.5Z" fill="#F2F2F2"/>
<path opacity="0.071" fill-rule="evenodd" clip-rule="evenodd" d="M210.5 438.5C211.849 437.203 213.182 437.37 214.5 439C213.181 439.195 211.847 439.028 210.5 438.5Z" fill="#F2F2F2"/>
</svg>
