<svg width="605" height="121" viewBox="0 0 605 121" fill="none" xmlns="http://www.w3.org/2000/svg">
<path fill-rule="evenodd" clip-rule="evenodd" d="M7.44629 66.0246C6.78029 62.8356 6.11329 59.5016 5.44629 56.0246C4.52929 56.6516 3.52929 56.9856 2.44629 57.0246C4.74729 32.2116 17.7473 15.7116 41.4463 7.52462C65.9393 2.24062 85.7723 9.40761 100.946 29.0246C101.446 31.1916 100.613 32.0246 98.4463 31.5246C83.5183 12.2156 64.1843 5.88262 40.4463 12.5246C17.1453 22.6046 6.14529 40.4376 7.44629 66.0246Z" fill="#FFE561"/>
<path opacity="0.997" fill-rule="evenodd" clip-rule="evenodd" d="M48.4461 26.0245C47.0241 26.2335 45.6911 26.7335 44.4461 27.5245C45.3941 28.0075 46.3941 28.1735 47.4461 28.0245C51.1281 27.8595 54.7941 28.0255 58.4461 28.5245C60.3401 29.6035 60.6731 30.9375 59.4461 32.5245C56.7361 33.5395 54.4031 35.0395 52.4461 37.0245C53.8851 39.0775 55.8851 40.0775 58.4461 40.0245C57.9681 37.2465 58.9681 35.2465 61.4461 34.0245C63.0791 36.0275 65.0791 37.3605 67.4461 38.0245C67.5311 40.4535 68.5311 42.4535 70.4461 44.0245C68.6181 45.3195 66.6181 46.3195 64.4461 47.0245C65.5871 47.9495 65.5871 48.7835 64.4461 49.5245C58.3401 51.7045 54.3401 55.8705 52.4461 62.0245C48.4991 58.8795 45.4991 59.5455 43.4461 64.0245C44.1881 64.8115 45.0211 65.4775 45.9461 66.0245C46.6351 65.1675 47.4681 64.5015 48.4461 64.0245C49.9491 66.1105 51.2821 68.2765 52.4461 70.5245C56.4461 69.8445 60.4461 70.1775 64.4461 71.5245C68.0701 74.1675 71.9031 76.3345 75.9461 78.0245C76.6131 79.3575 76.6131 80.6915 75.9461 82.0245C73.4831 85.4895 70.6501 88.6555 67.4461 91.5245C67.7791 91.6915 68.1131 91.8575 68.4461 92.0245C74.2931 89.2705 79.6261 85.7705 84.4461 81.5245C86.4461 80.8575 88.4461 80.8575 90.4461 81.5245C89.9891 81.9385 89.6551 82.4385 89.4461 83.0245C85.3631 86.7185 81.3631 90.5515 77.4461 94.5245C54.2171 105.149 35.3841 99.9815 20.9461 79.0245C12.2181 58.7575 16.3841 41.2575 33.4461 26.5245C50.2471 17.3295 66.5801 17.9955 82.4461 28.5245C93.0861 38.3185 97.7521 50.4855 96.4461 65.0245C92.8461 65.3185 89.3461 65.9845 85.9461 67.0245C85.8221 62.7785 87.6551 59.6115 91.4461 57.5245C87.5071 56.5475 86.5071 54.2135 88.4461 50.5245C86.6061 47.8555 84.6061 45.3555 82.4461 43.0245C85.0261 40.8115 85.0261 38.6445 82.4461 36.5245C79.6741 36.5765 77.3401 37.7435 75.4461 40.0245C74.1321 39.2115 72.9651 38.2115 71.9461 37.0245C71.8461 33.6215 71.0121 30.4545 69.4461 27.5245C62.5821 24.9575 55.5821 24.4575 48.4461 26.0245ZM30.4461 37.0245C31.7231 38.2185 32.3901 39.8845 32.4461 42.0245C31.6501 46.6815 31.4831 51.3485 31.9461 56.0245C35.0801 59.4645 37.5801 63.2975 39.4461 67.5245C42.1131 68.5245 44.7791 69.5245 47.4461 70.5245C49.0371 72.6575 51.0371 74.3235 53.4461 75.5245C50.9621 77.8085 50.7951 80.3085 52.9461 83.0245C57.1721 85.3505 58.3391 88.6835 56.4461 93.0245C45.9301 93.6905 37.0961 90.0235 29.9461 82.0245C19.1421 66.7555 19.3091 51.7555 30.4461 37.0245Z" fill="#FFE561"/>
<path opacity="0.094" fill-rule="evenodd" clip-rule="evenodd" d="M48.4463 26.0244C48.1133 26.6914 47.7793 27.3574 47.4463 28.0244C46.3943 28.1734 45.3943 28.0074 44.4463 27.5244C45.6913 26.7334 47.0243 26.2334 48.4463 26.0244Z" fill="#FFE561"/>
<path fill-rule="evenodd" clip-rule="evenodd" d="M301.446 26.0244C305.026 27.9324 308.026 30.5984 310.446 34.0244C307.796 37.1754 304.962 40.1754 301.946 43.0244C299.432 39.8464 296.932 36.6804 294.446 33.5244C296.294 30.5114 298.628 28.0114 301.446 26.0244Z" fill="#F2F2F2"/>
<path fill-rule="evenodd" clip-rule="evenodd" d="M328.446 34.0246C330.553 33.0566 332.887 32.7226 335.446 33.0246C335.765 37.8876 335.432 42.5546 334.446 47.0246C334.446 42.6916 334.446 38.3576 334.446 34.0246C332.446 34.0246 330.446 34.0246 328.446 34.0246Z" fill="#F2F2F2"/>
<path opacity="0.792" fill-rule="evenodd" clip-rule="evenodd" d="M478.446 34.0244C480.894 33.0514 483.561 32.7184 486.446 33.0244C486.73 34.9394 486.397 36.6054 485.446 38.0244C485.446 36.6914 485.446 35.3574 485.446 34.0244C483.113 34.0244 480.779 34.0244 478.446 34.0244Z" fill="#F2F2F2"/>
<path fill-rule="evenodd" clip-rule="evenodd" d="M328.446 34.0246C330.446 34.0246 332.446 34.0246 334.446 34.0246C334.446 38.3576 334.446 42.6916 334.446 47.0246C334.279 58.3626 334.446 69.6966 334.946 81.0246C335.451 83.0426 335.951 85.0426 336.446 87.0246C336.779 88.3576 337.113 89.6916 337.446 91.0246C333.968 93.8016 329.968 94.6346 325.446 93.5246C323.459 92.2056 322.292 90.3726 321.946 88.0246C322.723 72.0246 322.557 56.0246 321.446 40.0246C321.312 38.2326 321.645 36.5666 322.446 35.0246C324.325 34.1836 326.325 33.8496 328.446 34.0246Z" fill="#F2F2F2"/>
<path fill-rule="evenodd" clip-rule="evenodd" d="M478.446 34.0246C480.779 34.0246 483.113 34.0246 485.446 34.0246C485.446 35.3576 485.446 36.6916 485.446 38.0246C485.102 48.0336 484.935 58.0336 484.946 68.0246C489.647 63.6586 493.98 58.9916 497.946 54.0246C499.505 52.3076 500.338 50.3076 500.446 48.0246C502.113 48.0246 503.779 48.0246 505.446 48.0246C508.005 47.7226 510.339 48.0566 512.446 49.0246C507.801 54.0046 503.134 59.0046 498.446 64.0246C501.539 69.8836 504.872 75.5496 508.446 81.0246C508.373 82.5516 509.04 83.5516 510.446 84.0246C513.092 86.0036 515.425 88.3366 517.446 91.0246C512.406 93.6406 507.073 94.4736 501.446 93.5246C497.404 86.9396 493.237 80.4396 488.946 74.0246C486.869 75.6006 485.369 77.6006 484.446 80.0246C485.193 83.6626 485.86 87.3296 486.446 91.0246C486.113 91.6916 485.779 92.3576 485.446 93.0246C480.795 94.2276 476.128 94.2276 471.446 93.0246C471.446 75.0246 471.446 57.0246 471.446 39.0246C471.379 37.5656 471.712 36.2326 472.446 35.0246C474.325 34.1836 476.325 33.8496 478.446 34.0246Z" fill="#F2F2F2"/>
<path fill-rule="evenodd" clip-rule="evenodd" d="M322.446 35.0244C321.645 36.5664 321.312 38.2324 321.446 40.0244C320.807 39.4274 320.474 38.5944 320.446 37.5244C320.63 36.1484 321.297 35.3154 322.446 35.0244Z" fill="#F2F2F2"/>
<path fill-rule="evenodd" clip-rule="evenodd" d="M351.446 35.0243C350.113 35.6913 348.779 36.3573 347.446 37.0243C346.903 36.9643 346.57 36.6313 346.446 36.0243C347.991 35.0723 349.658 34.7393 351.446 35.0243Z" fill="#F2F2F2"/>
<path fill-rule="evenodd" clip-rule="evenodd" d="M351.446 35.0243C353.779 35.0243 356.113 35.0243 358.446 35.0243C359.617 35.8693 360.951 36.5353 362.446 37.0243C368.016 48.5033 373.349 60.1693 378.446 72.0243C378.657 73.9483 379.323 74.2812 380.446 73.0243C385.934 60.7122 391.434 48.3793 396.946 36.0243C402.018 35.0533 407.184 34.7193 412.446 35.0243C412.346 46.0293 412.012 57.0293 411.446 68.0243C411.397 76.1073 412.064 84.1073 413.446 92.0243C408.276 94.3403 402.943 94.6733 397.446 93.0243C397.873 88.7003 398.207 84.3663 398.446 80.0243C399.604 70.5332 399.771 60.8663 398.946 51.0243C397.907 51.7683 397.407 52.7682 397.446 54.0243C391.791 66.6693 386.125 79.3363 380.446 92.0243C378.494 94.0573 376.328 94.3903 373.946 93.0243C368.279 80.6912 362.613 68.3573 356.946 56.0243C356.276 68.2893 356.776 80.4563 358.446 92.5243C349.27 96.4262 345.603 93.4263 347.446 83.5243C348.573 68.0262 348.573 52.5263 347.446 37.0243C348.779 36.3573 350.113 35.6913 351.446 35.0243Z" fill="#F2F2F2"/>
<path fill-rule="evenodd" clip-rule="evenodd" d="M358.446 35.0244C360.429 34.6814 361.763 35.3484 362.446 37.0244C360.951 36.5354 359.617 35.8694 358.446 35.0244Z" fill="#F2F2F2"/>
<path fill-rule="evenodd" clip-rule="evenodd" d="M205.446 47.0244C200.976 46.0384 196.309 45.7054 191.446 46.0244C191.446 48.0244 191.446 50.0244 191.446 52.0244C191.28 62.3634 191.446 72.6964 191.946 83.0244C192.158 86.2824 192.658 89.4484 193.446 92.5244C191.412 93.5304 189.246 94.0304 186.946 94.0244C183.779 93.6234 180.612 93.2904 177.446 93.0244C177.615 88.3434 177.948 83.6764 178.446 79.0244C179.441 68.2034 179.774 57.2034 179.446 46.0244C174.583 45.7054 169.916 46.0384 165.446 47.0244C165.113 47.0244 164.779 47.0244 164.446 47.0244C163.168 46.7424 162.168 46.0754 161.446 45.0244C161.446 42.6914 161.446 40.3574 161.446 38.0244C162.168 36.9734 163.168 36.3064 164.446 36.0244C179.148 36.3084 193.815 35.9744 208.446 35.0244C210.086 39.5344 209.753 43.8684 207.446 48.0244C206.763 47.6614 206.096 47.3284 205.446 47.0244Z" fill="#F2F2F2"/>
<path fill-rule="evenodd" clip-rule="evenodd" d="M164.446 36.0246C163.168 36.3066 162.168 36.9736 161.446 38.0246C161.446 37.0246 161.446 36.0246 161.446 35.0246C162.737 34.7876 163.737 35.1206 164.446 36.0246Z" fill="#F2F2F2"/>
<path opacity="0.039" fill-rule="evenodd" clip-rule="evenodd" d="M472.446 35.0244C471.712 36.2324 471.379 37.5654 471.446 39.0244C470.822 38.6074 470.489 37.9404 470.446 37.0244C470.693 35.8114 471.36 35.1444 472.446 35.0244Z" fill="#F2F2F2"/>
<path opacity="0.49" fill-rule="evenodd" clip-rule="evenodd" d="M205.446 47.0243C201.113 47.0243 196.779 47.0243 192.446 47.0243C192.73 48.9393 192.397 50.6053 191.446 52.0243C191.446 50.0243 191.446 48.0243 191.446 46.0243C196.309 45.7053 200.976 46.0383 205.446 47.0243Z" fill="#F2F2F2"/>
<path opacity="0.039" fill-rule="evenodd" clip-rule="evenodd" d="M14.4465 49.0244C13.4215 48.6274 13.2545 47.9614 13.9465 47.0244C14.4105 47.6184 14.5775 48.2854 14.4465 49.0244Z" fill="#F2F2F2"/>
<path opacity="0.624" fill-rule="evenodd" clip-rule="evenodd" d="M161.446 45.0244C162.168 46.0754 163.168 46.7424 164.446 47.0244C163.737 47.9284 162.737 48.2614 161.446 48.0244C161.446 47.0244 161.446 46.0244 161.446 45.0244Z" fill="#F2F2F2"/>
<path opacity="0.98" fill-rule="evenodd" clip-rule="evenodd" d="M235.446 48.0244C235.863 47.4004 236.53 47.0674 237.446 47.0244C238.659 47.2714 239.326 47.9384 239.446 49.0244C238.238 48.2904 236.905 47.9574 235.446 48.0244Z" fill="#F2F2F2"/>
<path opacity="0.943" fill-rule="evenodd" clip-rule="evenodd" d="M505.446 48.0245C508.25 46.8865 511.25 46.7195 514.446 47.5245C513.902 48.2415 513.235 48.7415 512.446 49.0245C510.339 48.0565 508.005 47.7225 505.446 48.0245Z" fill="#F2F2F2"/>
<path fill-rule="evenodd" clip-rule="evenodd" d="M223.446 49.0245C223.373 50.5515 224.04 51.5515 225.446 52.0245C225.729 52.8135 226.229 53.4805 226.946 54.0245C229.225 51.1435 232.058 49.1435 235.446 48.0245C236.905 47.9575 238.238 48.2905 239.446 49.0245C240.334 51.5785 240.667 54.2455 240.446 57.0245C240.446 58.0245 240.446 59.0245 240.446 60.0245C237.887 59.7225 235.553 60.0565 233.446 61.0245C231.476 61.6865 229.476 62.3525 227.446 63.0245C227.113 67.1915 226.779 71.3575 226.446 75.5245C226.235 81.3525 226.901 87.0195 228.446 92.5245C223.166 94.3525 217.832 94.5195 212.446 93.0245C213.103 83.0275 213.27 73.0275 212.946 63.0245C212.834 59.0185 211.668 55.3515 209.446 52.0245C210.31 50.3275 211.643 49.1615 213.446 48.5245C216.87 47.7775 220.203 47.9445 223.446 49.0245Z" fill="#F2F2F2"/>
<path opacity="0.999" fill-rule="evenodd" clip-rule="evenodd" d="M266.446 69.0246C267.779 69.0246 269.113 69.0246 270.446 69.0246C270.714 67.4256 270.38 66.0926 269.446 65.0246C267.851 61.0556 264.851 59.3896 260.446 60.0246C255.758 59.9016 251.591 61.2346 247.946 64.0246C246.573 61.8296 246.24 59.4956 246.946 57.0246C255.042 47.5426 264.875 45.0426 276.446 49.5246C279.133 51.3996 280.967 53.8996 281.946 57.0246C282.591 63.8746 282.424 70.7076 281.446 77.5246C281.474 82.1476 282.808 86.3136 285.446 90.0246C281.925 92.9216 277.925 94.0876 273.446 93.5246C271.897 92.3106 270.731 90.8106 269.946 89.0246C262.439 94.7226 254.605 95.3896 246.446 91.0246C242.346 82.1546 244.679 75.6546 253.446 71.5246C257.634 69.8936 261.967 69.0606 266.446 69.0246ZM264.446 74.0246C266.113 74.0246 267.779 74.0246 269.446 74.0246C269.272 77.3986 268.772 80.7316 267.946 84.0246C260.276 88.6736 257.276 86.6736 258.946 78.0246C260.758 76.5476 262.591 75.2146 264.446 74.0246Z" fill="#F2F2F2"/>
<path fill-rule="evenodd" clip-rule="evenodd" d="M303.446 48.0243C305.113 48.0243 306.779 48.0243 308.446 48.0243C308.446 50.6913 308.446 53.3573 308.446 56.0243C308.28 64.3643 308.446 72.6973 308.946 81.0243C309.062 84.4563 310.229 87.4563 312.446 90.0243C308.832 93.6893 304.499 94.8563 299.446 93.5243C297.408 92.2883 296.241 90.4553 295.946 88.0243C296.226 76.0073 296.06 64.0073 295.446 52.0243C295.503 50.9153 295.836 49.9153 296.446 49.0243C298.71 48.3053 301.043 47.9723 303.446 48.0243Z" fill="#F2F2F2"/>
<path opacity="0.999" fill-rule="evenodd" clip-rule="evenodd" d="M443.446 69.0245C444.779 69.0245 446.113 69.0245 447.446 69.0245C447.714 67.4255 447.38 66.0925 446.446 65.0245C444.851 61.0555 441.851 59.3895 437.446 60.0245C432.821 60.0665 428.655 61.3995 424.946 64.0245C423.796 61.7705 423.462 59.4375 423.946 57.0245C432.826 46.8455 443.326 44.6785 455.446 50.5245C456.987 52.1035 458.154 53.9375 458.946 56.0245C459.673 63.3805 459.506 70.7135 458.446 78.0245C458.789 82.2415 460.122 86.0745 462.446 89.5245C459.132 92.8515 455.132 94.1845 450.446 93.5245C448.897 92.3105 447.731 90.8105 446.946 89.0245C441.211 93.6125 434.711 95.1125 427.446 93.5245C421.316 89.4515 419.816 83.9515 422.946 77.0245C428.622 71.5195 435.455 68.8525 443.446 69.0245ZM442.446 74.0245C443.779 74.0245 445.113 74.0245 446.446 74.0245C446.446 75.0245 446.446 76.0245 446.446 77.0245C447.146 83.6775 444.146 86.8445 437.446 86.5245C433.661 80.2445 435.327 76.0785 442.446 74.0245Z" fill="#F2F2F2"/>
<path opacity="0.999" fill-rule="evenodd" clip-rule="evenodd" d="M538.446 47.0242C553.225 46.1302 561.225 53.1302 562.446 68.0242C562.237 69.5182 561.57 70.6852 560.446 71.5242C551.164 73.2162 541.831 74.5502 532.446 75.5242C535.503 82.6042 540.836 84.9372 548.446 82.5242C551.957 81.8542 555.29 80.6872 558.446 79.0242C560.202 80.7152 560.702 82.7152 559.946 85.0242C549.755 94.7092 538.255 96.5422 525.446 90.5242C517.205 79.9962 516.371 68.8292 522.946 57.0242C527.185 52.0032 532.352 48.6702 538.446 47.0242ZM536.446 55.0242C543.714 54.9582 547.381 58.6252 547.446 66.0242C542.715 66.7072 538.048 67.7072 533.446 69.0242C532.305 67.1032 532.138 65.1032 532.946 63.0242C533.867 60.1882 535.034 57.5222 536.446 55.0242Z" fill="#F2F2F2"/>
<path fill-rule="evenodd" clip-rule="evenodd" d="M601.446 51.0244C601.446 54.0244 601.446 57.0244 601.446 60.0244C598.887 59.7224 596.553 60.0564 594.446 61.0244C590.671 61.3224 588.504 63.3224 587.946 67.0244C587.207 75.2694 587.707 83.4364 589.446 91.5244C589.041 92.4694 588.374 93.1364 587.446 93.5244C583.075 94.1534 578.742 93.9874 574.446 93.0244C574.613 81.3534 574.446 69.6864 573.946 58.0244C573.215 55.6254 572.048 53.4594 570.446 51.5244C574.586 48.2824 579.252 47.2824 584.446 48.5244C586.368 49.9444 587.701 51.7774 588.446 54.0244C591.81 49.8434 596.143 47.5094 601.446 47.0244C601.446 48.3574 601.446 49.6914 601.446 51.0244Z" fill="#F2F2F2"/>
<path opacity="0.01" fill-rule="evenodd" clip-rule="evenodd" d="M14.4463 49.0244C15.1133 49.0244 15.4463 49.3574 15.4463 50.0244C15.1133 49.6914 14.7793 49.3574 14.4463 49.0244Z" fill="#F2F2F2"/>
<path fill-rule="evenodd" clip-rule="evenodd" d="M296.446 49.0244C295.836 49.9154 295.503 50.9154 295.446 52.0244C294.061 50.5774 294.394 49.5774 296.446 49.0244Z" fill="#F2F2F2"/>
<path opacity="0.027" fill-rule="evenodd" clip-rule="evenodd" d="M15.4463 50.0244C16.7793 50.6914 16.7793 50.6914 15.4463 50.0244Z" fill="#F2F2F2"/>
<path fill-rule="evenodd" clip-rule="evenodd" d="M223.446 49.0244C224.852 49.4974 225.519 50.4974 225.446 52.0244C224.04 51.5514 223.373 50.5514 223.446 49.0244Z" fill="#F2F2F2"/>
<path opacity="0.831" fill-rule="evenodd" clip-rule="evenodd" d="M303.446 48.0242C305.211 47.0632 307.211 46.7292 309.446 47.0242C309.756 50.2372 309.423 53.2372 308.446 56.0242C308.446 53.3572 308.446 50.6912 308.446 48.0242C306.779 48.0242 305.113 48.0242 303.446 48.0242Z" fill="#F2F2F2"/>
<path fill-rule="evenodd" clip-rule="evenodd" d="M90.4465 77.0247C87.8875 77.3267 85.5535 76.9927 83.4465 76.0247C83.2755 73.5317 84.2755 71.6987 86.4465 70.5247C91.4985 69.7807 96.4985 68.7807 101.446 67.5247C103.382 62.9717 106.048 58.9717 109.446 55.5247C110.446 54.8577 111.446 54.8577 112.446 55.5247C113.206 56.9657 113.872 58.4657 114.446 60.0247C113.211 63.5637 111.878 67.0637 110.446 70.5247C113.565 75.5937 116.565 80.7597 119.446 86.0247C118.779 87.6917 118.113 89.3577 117.446 91.0247C116.944 92.0457 116.278 92.2127 115.446 91.5247C112.63 87.7417 109.463 84.2417 105.946 81.0247C104.193 83.5297 102.693 86.1957 101.446 89.0247C102.581 91.3237 103.914 93.4907 105.446 95.5247C104.899 96.4497 104.233 97.2827 103.446 98.0247C98.0365 96.6717 92.7035 94.6717 87.4465 92.0247C87.1845 90.5467 87.5175 89.2137 88.4465 88.0247C90.6935 87.1507 93.0265 86.8167 95.4465 87.0247C95.9445 83.6957 96.9445 80.5297 98.4465 77.5247C95.8005 77.0277 93.1335 76.8607 90.4465 77.0247Z" fill="#FFE561"/>
<path opacity="0.877" fill-rule="evenodd" clip-rule="evenodd" d="M165.446 47.0243C169.916 46.0383 174.583 45.7053 179.446 46.0243C179.774 57.2033 179.441 68.2033 178.446 79.0243C178.446 68.3573 178.446 57.6913 178.446 47.0243C174.113 47.0243 169.779 47.0243 165.446 47.0243Z" fill="#F2F2F2"/>
<path opacity="0.578" fill-rule="evenodd" clip-rule="evenodd" d="M398.446 80.0244C398.772 71.1754 398.439 62.5084 397.446 54.0244C397.407 52.7684 397.907 51.7684 398.946 51.0244C399.771 60.8664 399.604 70.5334 398.446 80.0244Z" fill="#F2F2F2"/>
<path fill-rule="evenodd" clip-rule="evenodd" d="M240.446 57.0244C241.38 58.0924 241.714 59.4254 241.446 61.0244C238.779 61.0244 236.113 61.0244 233.446 61.0244C235.553 60.0564 237.887 59.7224 240.446 60.0244C240.446 59.0244 240.446 58.0244 240.446 57.0244Z" fill="#F2F2F2"/>
<path fill-rule="evenodd" clip-rule="evenodd" d="M601.446 51.0244C602.425 54.1494 602.759 57.4824 602.446 61.0244C599.779 61.0244 597.113 61.0244 594.446 61.0244C596.553 60.0564 598.887 59.7224 601.446 60.0244C601.446 57.0244 601.446 54.0244 601.446 51.0244Z" fill="#F2F2F2"/>
<path fill-rule="evenodd" clip-rule="evenodd" d="M269.446 65.0244C270.38 66.0924 270.714 67.4254 270.446 69.0244C269.113 69.0244 267.779 69.0244 266.446 69.0244C267.155 68.1204 268.155 67.7874 269.446 68.0244C269.446 67.0244 269.446 66.0244 269.446 65.0244Z" fill="#F2F2F2"/>
<path opacity="0.886" fill-rule="evenodd" clip-rule="evenodd" d="M446.446 65.0244C447.38 66.0924 447.714 67.4254 447.446 69.0244C446.113 69.0244 444.779 69.0244 443.446 69.0244C444.155 68.1204 445.155 67.7874 446.446 68.0244C446.446 67.0244 446.446 66.0244 446.446 65.0244Z" fill="#F2F2F2"/>
<path fill-rule="evenodd" clip-rule="evenodd" d="M7.44642 66.0244C7.27442 67.0164 7.60842 67.6824 8.44642 68.0244C14.0854 93.0324 29.7514 106.699 55.4464 109.024C68.1584 108.232 79.4914 103.899 89.4464 96.0244C91.5004 97.7184 93.8344 98.8854 96.4464 99.5244C78.0504 115.619 57.3844 119.286 34.4464 110.524C12.8054 99.0514 2.13842 81.2184 2.44642 57.0244C3.52942 56.9854 4.52942 56.6514 5.44642 56.0244C6.11342 59.5014 6.78042 62.8354 7.44642 66.0244Z" fill="#FFE561"/>
<path fill-rule="evenodd" clip-rule="evenodd" d="M378.446 72.0244C379.113 72.3574 379.779 72.6914 380.446 73.0244C379.323 74.2814 378.657 73.9484 378.446 72.0244Z" fill="#F2F2F2"/>
<path opacity="0.561" fill-rule="evenodd" clip-rule="evenodd" d="M442.446 74.0243C443.865 73.0733 445.531 72.7403 447.446 73.0243C447.714 74.6233 447.38 75.9563 446.446 77.0243C446.446 76.0243 446.446 75.0243 446.446 74.0243C445.113 74.0243 443.779 74.0243 442.446 74.0243Z" fill="#F2F2F2"/>
<path opacity="0.851" fill-rule="evenodd" clip-rule="evenodd" d="M83.4463 76.0244C85.5533 76.9924 87.8873 77.3264 90.4463 77.0244C87.9223 78.3244 85.2553 78.3244 82.4463 77.0244C82.5703 76.4174 82.9033 76.0844 83.4463 76.0244Z" fill="#FFE561"/>
<path fill-rule="evenodd" clip-rule="evenodd" d="M508.446 81.0244C509.852 81.4974 510.519 82.4974 510.446 84.0244C509.04 83.5514 508.373 82.5514 508.446 81.0244Z" fill="#F2F2F2"/>
<path fill-rule="evenodd" clip-rule="evenodd" d="M336.446 87.0244C338.465 88.0624 338.799 89.3964 337.446 91.0244C337.113 89.6914 336.779 88.3574 336.446 87.0244Z" fill="#F2F2F2"/>
</svg>
